<svg xmlns="http://www.w3.org/2000/svg" viewBox="0 0 120 120" width="120" height="120">
  <defs>
    <linearGradient id="brand" x1="0%" y1="0%" x2="100%" y2="100%">
      <stop offset="0%" stop-color="#A5B4FC" />
      <stop offset="50%" stop-color="#818CF8" />
      <stop offset="100%" stop-color="#6366F1" />
    </linearGradient>
    <linearGradient id="node" x1="0%" y1="0%" x2="100%" y2="100%">
      <stop offset="0%" stop-color="#C7D2FE" />
      <stop offset="100%" stop-color="#818CF8" />
    </linearGradient>
    <linearGradient id="line" x1="0%" y1="0%" x2="100%" y2="0%">
      <stop offset="0%" stop-color="#818CF8" stop-opacity="0.3" />
      <stop offset="100%" stop-color="#A5B4FC" stop-opacity="0.7" />
    </linearGradient>
    <mask id="ringMask" maskContentUnits="userSpaceOnUse">
      <rect x="-100" y="-100" width="500" height="500" fill="white" />
      <circle cx="44" cy="44" r="13" fill="black" />
    </mask>
  </defs>

  <g transform="translate(16, 16)">
    <line x1="60" y1="32" x2="80" y2="16" stroke="url(#line)" stroke-width="2.5" stroke-linecap="round" />
    <line x1="60" y1="56" x2="80" y2="72" stroke="url(#line)" stroke-width="2.5" stroke-linecap="round" />
    <line x1="28" y1="32" x2="8" y2="16" stroke="url(#line)" stroke-width="2.5" stroke-linecap="round" />
    <line x1="28" y1="56" x2="8" y2="72" stroke="url(#line)" stroke-width="2.5" stroke-linecap="round" />

    <circle cx="44" cy="44" r="22" fill="url(#brand)" mask="url(#ringMask)" />

    <circle cx="82" cy="14" r="7" fill="url(#node)" />
    <circle cx="82" cy="74" r="7" fill="url(#node)" />
    <circle cx="6" cy="14" r="7" fill="url(#node)" />
    <circle cx="6" cy="74" r="7" fill="url(#node)" />

    <path d="M 50 42 A 6.5 6.5 0 0 0 38 42" fill="none" stroke="url(#brand)" stroke-width="2" stroke-linecap="round" />
    <path d="M 38 42 L 41 39.5 L 41 44.5 Z" fill="url(#brand)" />

    <path d="M 38 46 A 6.5 6.5 0 0 0 50 46" fill="none" stroke="url(#brand)" stroke-width="2" stroke-linecap="round" />
    <path d="M 50 46 L 47 43.5 L 47 48.5 Z" fill="url(#brand)" />
  </g>
</svg>
